<?xml version="1.0" encoding="UTF-8" standalone="no"?>
<svg
   id="svg"
   version="1.1"
   width="80"
   height="25"
   viewBox="0 0 80 25"
   sodipodi:docname="leevoluciona_small.svg"
   inkscape:version="1.1 (c68e22c387, 2021-05-23)"
   xmlns:inkscape="http://www.inkscape.org/namespaces/inkscape"
   xmlns:sodipodi="http://sodipodi.sourceforge.net/DTD/sodipodi-0.dtd"
   xmlns="http://www.w3.org/2000/svg"
   xmlns:svg="http://www.w3.org/2000/svg">
  <defs
     id="defs7" />
  <sodipodi:namedview
     id="namedview5"
     pagecolor="#ffffff"
     bordercolor="#666666"
     borderopacity="1.0"
     inkscape:pageshadow="2"
     inkscape:pageopacity="0.0"
     inkscape:pagecheckerboard="0"
     showgrid="false"
     inkscape:zoom="11.193954"
     inkscape:cx="42.388953"
     inkscape:cy="14.606099"
     inkscape:window-width="1920"
     inkscape:window-height="1017"
     inkscape:window-x="-8"
     inkscape:window-y="-8"
     inkscape:window-maximized="1"
     inkscape:current-layer="svg" />
  <path
     style="fill:#ffffff;fill-rule:evenodd;stroke-width:0.0773438"
     d="M 8.1535854,19.330419 C 7.3079827,19.093808 6.8228948,18.733349 4.9559573,16.954326 4.2974991,16.326874 3.7332331,15.813505 3.7020327,15.813505 c -0.0312,0 -0.2288472,0.15475 -0.4392155,0.34389 -0.7024311,0.631546 -1.638198,0.829307 -2.30701966,0.487555 -0.44313346,-0.22643 -0.63335463,-0.498643 -0.6787761,-0.971355 -0.0918575,-0.955978 0.52798706,-1.71634 1.39915596,-1.71634 0.4576596,0 0.8804543,0.158937 1.4479432,0.544311 0.2594382,0.176181 0.4822389,0.30851 0.4951125,0.294064 0.2141886,-0.240353 1.0000689,-2.393076 1.7787348,-4.8724012 0.4744074,-1.510546 0.5039856,-1.6894123 0.2793676,-1.6894123 -0.2700346,0 -2.2758301,0.389999 -2.7895243,0.5423838 C 2.2059798,8.9784627 1.5879387,9.3646953 1.3088402,9.7629471 1.0083942,10.19166 0.94257581,10.912418 1.166759,11.31884 c 0.1332428,0.241556 0.2653378,0.33449 0.9089427,0.639472 0.14159,0.0671 0.2320312,0.16909 0.2320312,0.261674 0,0.350555 -0.9896154,0.171596 -1.36859897,-0.247494 C 0.47290348,11.456922 0.35028619,10.430998 0.67255017,9.7420198 0.89671712,9.2627661 1.4521802,8.7427845 1.9976744,8.5015411 2.572365,8.2473858 3.1713781,8.0998002 4.7759846,7.8170184 L 6.1614235,7.5728606 6.3876706,7.1492369 C 6.6548832,6.64891 7.1663948,6.0904111 7.4836079,5.9526276 7.6968434,5.8600073 7.8694353,5.8776958 8.2467274,6.0308367 8.4423693,6.1102471 8.6294869,6.505855 8.5680305,6.7101428 8.4463942,7.1144754 7.6875716,7.6966225 7.0422508,7.8806782 6.599255,8.0070277 6.5249415,8.1716397 5.6332399,11.001775 5.227295,12.290188 4.7541181,13.664973 4.5817358,14.056853 4.4093536,14.448735 4.2193771,14.879826 4.1595661,15.014835 l -0.1087472,0.245471 1.4606714,1.41742 c 1.8330786,1.778799 2.3993255,2.141552 3.3542076,2.148791 0.5050245,0.0038 0.9082516,-0.165086 1.4030281,-0.587736 0.583828,-0.49872 0.823402,-0.178719 0.312798,0.417807 -0.544219,0.635797 -1.5581748,0.917202 -2.4279386,0.673831 z M 2.5275198,15.98393 c 0.3745027,-0.202744 0.6696665,-0.497634 0.6696665,-0.669045 0,-0.225092 -1.1043382,-0.814198 -1.5286752,-0.815468 -0.3923344,-0.0012 -0.79579413,0.408947 -0.84671247,0.860693 -0.0485993,0.431171 0.0624342,0.661232 0.38987557,0.80782 0.3260628,0.145971 0.8387632,0.07428 1.3158456,-0.184 z M 7.6637883,7.0220752 C 7.937467,6.8170417 8.0068009,6.4852231 7.7931005,6.4032185 7.637131,6.3433673 7.2985262,6.5947835 7.1165038,6.9055959 6.858709,7.3457934 7.1491729,7.4076132 7.6637883,7.0220752 Z"
     id="path400" />
  <path
     style="fill:#ffffff;fill-rule:evenodd;stroke-width:0.0773438"
     d="M 8.3018743,16.700476 C 7.7674059,16.459471 7.3754085,15.940053 7.2636968,15.324834 7.141632,14.652598 7.5370665,13.152962 8.1001847,12.152558 c 0.3764446,-0.66877 0.9475254,-1.346882 1.3896272,-1.650067 0.3363307,-0.23065 0.431711,-0.257737 0.9075691,-0.257737 0.474543,0 0.558111,0.02356 0.776888,0.219039 0.206946,0.184907 0.25075,0.286614 0.281109,0.652699 0.09331,1.125185 -0.83133,1.940696 -3.1692192,2.795182 -0.4234027,0.154751 -0.4710664,0.254489 -0.4710833,0.985757 -2.65e-5,1.147592 0.8275617,1.659052 1.9817379,1.224738 0.8527726,-0.320896 1.4064286,-1.05931 2.1801996,-2.907743 0.62786,-1.499874 1.305774,-2.436176 2.032194,-2.806768 0.380093,-0.193909 1.075719,-0.218869 1.401704,-0.0503 0.258836,0.133849 0.470652,0.542808 0.470652,0.908699 0,0.144741 -0.09015,0.444065 -0.200326,0.665165 -0.359316,0.721054 -1.278489,1.368135 -2.609625,1.837129 -0.7096,0.250011 -0.822298,0.381784 -0.881097,1.03023 -0.05744,0.633496 0.161398,1.094558 0.626366,1.319645 0.420188,0.20341 0.780097,0.201456 1.340882,-0.0073 0.584312,-0.217491 1.262838,-0.9029 1.677122,-1.694133 0.488435,-0.932853 0.820115,-1.193669 0.820115,-0.644897 0,0.707099 -1.266893,2.358949 -2.134919,2.783635 -0.570756,0.279245 -1.31527,0.333402 -1.845371,0.134236 -0.421857,-0.158497 -0.86619,-0.648725 -0.944957,-1.04256 -0.02425,-0.121245 -0.07791,-0.220446 -0.119243,-0.220446 -0.04133,0 -0.302722,0.208526 -0.580862,0.463391 -0.66421,0.608627 -1.2125645,0.867428 -1.9156642,0.904116 -0.3788898,0.01977 -0.6226645,-0.0084 -0.8121095,-0.09382 z m 0.966797,-3.824588 c 0.8765457,-0.437274 1.4266707,-0.872241 1.6209367,-1.281624 0.171377,-0.361153 0.104172,-0.617269 -0.203755,-0.776505 -0.334019,-0.172727 -0.7433078,-0.0439 -1.2010705,0.378053 -0.7299927,0.672883 -1.4618039,2.064536 -1.0862285,2.065631 0.053174,1.55e-4 0.4447267,-0.173345 0.8701173,-0.385555 z m 3.8770787,0.26016 c 0.559922,-0.233913 1.487151,-0.809685 1.766419,-1.096875 0.544606,-0.560056 0.548864,-1.194307 0.0087,-1.295642 -0.587106,-0.110142 -1.264957,0.444045 -1.890975,1.545997 -0.533563,0.939205 -0.510439,1.108161 0.115856,0.84652 z"
     id="path556" />
  <path
     style="fill:#ffffff;fill-rule:evenodd;stroke-width:0.0773438"
     d="m 22.237781,16.719863 c -0.04524,-0.05451 -0.481577,-1.072547 -0.969639,-2.262305 -1.38135,-3.36734 -1.47009,-3.53696 -1.899863,-3.631354 -0.247112,-0.05427 -0.449452,-0.241873 -0.358036,-0.331952 0.09498,-0.09359 3.059974,-0.04725 3.156558,0.04933 0.116923,0.116925 0.05315,0.162571 -0.381228,0.272862 -0.320945,0.08149 -0.377436,0.124804 -0.398661,0.305679 -0.04018,0.342421 1.33522,4.235954 1.498405,4.241732 0.04026,0.0014 0.383605,-0.740834 0.762988,-1.649467 0.616958,-1.477631 0.693282,-1.713613 0.722874,-2.235064 l 0.03309,-0.583006 -0.336156,-0.07442 c -0.267769,-0.05928 -0.341415,-0.111567 -0.362,-0.257027 l -0.02584,-0.182612 1.163243,0.02837 c 1.381343,0.03369 1.503224,0.09062 0.973795,0.454881 -0.419798,0.288828 -0.468548,0.383362 -1.893519,3.671815 -0.479264,1.106016 -0.924013,2.071847 -0.988327,2.146289 -0.136754,0.15829 -0.577396,0.181179 -0.697683,0.03624 z"
     id="path712" />
  <path
     style="fill:#ffffff;fill-rule:evenodd;stroke-width:0.0773438"
     d="m 29.455394,16.632651 c -1.143099,-0.283244 -2.096537,-1.23166 -2.405784,-2.393106 -0.480247,-1.80367 0.794615,-3.604452 2.771937,-3.915448 1.374516,-0.216186 2.920134,0.622304 3.524555,1.912055 0.186848,0.398708 0.20851,0.533317 0.20851,1.295712 0,0.774904 -0.01927,0.890046 -0.216198,1.291038 -0.69695,1.419245 -2.349907,2.189634 -3.88302,1.809749 z m 1.754695,-0.78418 c 0.416817,-0.291413 0.799966,-0.852907 0.961745,-1.409406 0.18557,-0.638339 0.12114,-1.703823 -0.13692,-2.264246 -0.431113,-0.936238 -1.044704,-1.347756 -1.934589,-1.297473 -0.706855,0.03994 -1.088268,0.303229 -1.441237,0.994882 -0.618255,1.211483 -0.451571,2.955224 0.356357,3.728005 0.465136,0.444901 0.679505,0.527538 1.305191,0.503138 0.47321,-0.01845 0.605471,-0.05636 0.889453,-0.2549 z"
     id="path751" />
  <path
     style="fill:#ffffff;fill-rule:evenodd;stroke-width:0.0773438"
     d="m 34.572972,16.53538 c -0.112953,-0.112951 -0.03209,-0.179258 0.419296,-0.343843 0.337842,-0.123183 0.490782,-0.224087 0.541385,-0.357182 0.105484,-0.277443 0.17904,-6.4188116 0.08727,-7.286049 C 35.535743,7.7434085 35.485339,7.6652979 35.001175,7.5878769 34.841434,7.5623333 34.644462,7.4929735 34.563462,7.4337439 34.419891,7.3287614 34.42036,7.3238206 34.582144,7.2372341 34.81938,7.1102692 36.607997,6.7368259 36.672109,6.8008724 c 0.02948,0.029444 0.07539,1.9910213 0.10204,4.3590596 0.05742,5.103004 0.03519,4.958838 0.782998,5.078308 0.29845,0.04768 0.391848,0.215741 0.167697,0.301756 -0.167046,0.0641 -3.087438,0.05982 -3.151877,-0.0046 z"
     id="path790" />
  <path
     style="fill:#ffffff;fill-rule:evenodd;stroke-width:0.0773438"
     d="m 40.881399,16.626314 c -0.751021,-0.210663 -0.997929,-0.398361 -1.225562,-0.931655 -0.105032,-0.246074 -0.14252,-0.695606 -0.190036,-2.278811 -0.03256,-1.084746 -0.09319,-2.060708 -0.13475,-2.168803 -0.0968,-0.25179 -0.225159,-0.352884 -0.531056,-0.418253 -0.259832,-0.05553 -0.470813,-0.24103 -0.37879,-0.333052 0.03006,-0.03006 0.53773,-0.06792 1.128157,-0.08413 l 1.073509,-0.02948 0.02368,2.270963 c 0.02341,2.245062 0.02589,2.275371 0.217042,2.657569 0.587982,1.175624 1.924759,0.887463 2.665651,-0.574618 0.189899,-0.374749 0.196069,-0.434308 0.196069,-1.892664 0,-0.828157 -0.03112,-1.586316 -0.06915,-1.684798 -0.04781,-0.123807 -0.21691,-0.235494 -0.548003,-0.361954 -0.336427,-0.128497 -0.454537,-0.20721 -0.397106,-0.264642 0.07454,-0.07454 2.159963,-0.192203 2.185188,-0.123294 0.0059,0.01618 0.03203,1.251013 0.05801,2.744065 0.05196,2.986392 0.04142,2.927315 0.538407,3.016933 0.9692,0.174768 0.633898,0.434647 -0.695803,0.539286 -0.624623,0.04915 -0.674322,0.0421 -0.754101,-0.106963 -0.04697,-0.08777 -0.08588,-0.309793 -0.08646,-0.49338 -6.58e-4,-0.183588 -0.02188,-0.411498 -0.04734,-0.506466 -0.04346,-0.162127 -0.07527,-0.146334 -0.521013,0.258667 -0.861692,0.782927 -1.619406,1.014328 -2.50654,0.765484 z"
     id="path829" />
  <path
     style="fill:#ffffff;fill-rule:evenodd;stroke-width:0.0773438"
     d="m 49.04938,16.59322 c -0.567101,-0.181364 -0.900435,-0.391493 -1.287972,-0.811921 -0.921857,-1.000099 -1.104579,-2.458492 -0.46962,-3.748278 0.589313,-1.197067 1.707634,-1.773514 3.293556,-1.69769 0.553057,0.02644 0.780455,0.0757 1.122919,0.243254 0.617336,0.302034 0.787684,0.69901 0.46245,1.077693 -0.214141,0.249336 -0.527536,0.157041 -1.048273,-0.308717 -0.390043,-0.348862 -0.728264,-0.484057 -1.21098,-0.484057 -0.946944,0 -1.507381,0.738802 -1.595677,2.10351 -0.124624,1.926257 0.477999,3.020457 1.725189,3.132477 0.574552,0.05161 0.950665,-0.05171 1.576355,-0.433007 0.43759,-0.266669 0.514133,-0.290658 0.615067,-0.192765 0.416719,0.404167 -1.251701,1.278257 -2.412189,1.263752 -0.183029,-0.0023 -0.5299,-0.0672 -0.770825,-0.144251 z"
     id="path868" />
  <path
     style="fill:#ffffff;fill-rule:evenodd;stroke-width:0.0773438"
     d="m 53.283346,16.517836 c -0.140918,-0.05522 -0.139026,-0.06495 0.03655,-0.187924 0.101837,-0.07133 0.245384,-0.129688 0.318995,-0.129688 0.255787,0 0.517974,-0.176159 0.619288,-0.416088 0.07534,-0.178419 0.101907,-0.755501 0.101907,-2.2136 0,-2.236405 -0.02858,-2.378109 -0.502734,-2.493 -0.649523,-0.157383 -0.896637,-0.371989 -0.55368,-0.480839 0.295676,-0.09384 1.762412,-0.351943 2.000037,-0.351943 h 0.247833 l 0.02302,2.729931 c 0.02652,3.14507 0.0096,3.064616 0.676563,3.224608 0.299332,0.07181 0.390603,0.128046 0.390603,0.240676 0,0.139855 -0.07774,0.14671 -1.604885,0.141538 -0.882685,-0.003 -1.671757,-0.03164 -1.753494,-0.06367 z"
     id="path907" />
  <path
     style="fill:#ffffff;fill-rule:evenodd;stroke-width:0.0773438"
     d="M 54.544784,8.2725162 C 53.98475,7.9681435 54.12597,7.1463537 54.758708,7.0276515 c 0.543538,-0.1019681 0.95398,0.2953782 0.840204,0.8133953 -0.101801,0.4634933 -0.611407,0.6720831 -1.054128,0.4314694 z"
     id="path946" />
  <path
     style="fill:#ffffff;fill-rule:evenodd;stroke-width:0.0773438"
     d="m 60.071756,16.636753 c -1.336305,-0.340692 -2.269648,-1.331942 -2.519585,-2.675908 -0.171438,-0.921859 0.223787,-2.066449 0.947192,-2.743108 1.910044,-1.786623 5.108121,-0.801645 5.653467,1.741215 0.302629,1.411103 -0.65475,2.989904 -2.152986,3.550466 -0.540476,0.202218 -1.409311,0.259598 -1.928088,0.127335 z m 1.604656,-0.718695 c 0.779657,-0.424343 1.19182,-1.382791 1.138794,-2.648162 -0.0364,-0.868556 -0.244084,-1.412208 -0.717897,-1.879191 -0.521686,-0.514169 -1.062626,-0.642343 -1.861717,-0.44113 -0.411944,0.103729 -0.8941,0.588397 -1.127859,1.133731 -0.460701,1.074771 -0.238841,2.783068 0.458089,3.527256 0.507796,0.542227 1.431936,0.676866 2.11059,0.307496 z"
     id="path985" />
  <path
     style="fill:#ffffff;fill-rule:evenodd;stroke-width:0.0773438"
     d="m 65.231583,16.514142 c -0.11204,-0.07089 -0.03273,-0.118627 0.634937,-0.382144 0.117835,-0.04651 0.243742,-0.163299 0.279788,-0.259535 0.109963,-0.293573 0.174683,-2.829344 0.0933,-3.655443 -0.0679,-0.689169 -0.09819,-0.792398 -0.278071,-0.947461 -0.111028,-0.09571 -0.300082,-0.174023 -0.420119,-0.174023 -0.26764,0 -0.44126,-0.172107 -0.295582,-0.293008 0.133042,-0.110415 1.679763,-0.498074 1.801256,-0.451452 0.05357,0.02055 0.121278,0.247218 0.15141,0.506838 0.06542,0.563646 0.155642,0.592191 0.600744,0.190068 0.513224,-0.463667 1.071342,-0.675146 1.874906,-0.71043 0.666239,-0.02925 0.717656,-0.01946 1.198827,0.228358 0.428273,0.220572 0.530679,0.315312 0.691388,0.639634 0.179808,0.362861 0.191172,0.473478 0.242361,2.359246 0.0628,2.313563 0.104863,2.498572 0.598268,2.631432 0.312266,0.08408 0.518323,0.248195 0.426688,0.339829 -0.02799,0.02799 -0.741184,0.05089 -1.584876,0.05089 -1.284056,0 -1.533984,-0.01816 -1.533984,-0.111451 0,-0.136628 0.108966,-0.20811 0.411582,-0.270002 0.446293,-0.09128 0.547424,-0.352182 0.580245,-1.496945 0.03927,-1.369862 -0.09049,-2.854725 -0.277449,-3.174839 -0.359752,-0.615981 -1.161285,-0.778983 -1.934881,-0.393483 -0.43552,0.217028 -0.709554,0.499024 -0.957796,0.985616 -0.150623,0.295244 -0.158168,0.413791 -0.129211,2.030339 0.02294,1.280852 0.05697,1.748375 0.133996,1.84119 0.05679,0.06842 0.247112,0.162861 0.422949,0.209865 0.360746,0.09643 0.531606,0.209787 0.468971,0.311131 -0.05599,0.0906 -3.056043,0.08664 -3.199647,-0.0042 z"
     id="path1024" />
  <path
     style="fill:#ffffff;fill-rule:evenodd;stroke-width:0.0773438"
     d="m 74.72153,16.636287 c -0.682417,-0.254671 -0.986079,-0.633675 -0.986546,-1.231321 -4.39e-4,-0.49455 0.143308,-0.809173 0.528187,-1.156471 0.315314,-0.284528 1.485751,-0.907208 2.507266,-1.333884 l 0.52207,-0.218062 v -0.57096 c 0,-0.954499 -0.245834,-1.303891 -0.97635,-1.387638 -0.560414,-0.06425 -0.74972,0.04344 -1.042719,0.593162 -0.139754,0.262205 -0.332899,0.52837 -0.429213,0.591478 -0.236077,0.154682 -0.614911,0.06492 -0.77828,-0.184412 -0.114062,-0.174082 -0.115832,-0.22838 -0.01671,-0.512828 0.201634,-0.57865 0.735702,-0.814731 1.994529,-0.881665 0.878036,-0.04669 1.51424,0.05195 1.917703,0.297319 0.435472,0.264837 0.496273,0.56164 0.60311,2.94406 0.0806,1.797378 0.11771,2.174563 0.23093,2.347359 0.108499,0.165592 0.175174,0.196698 0.340756,0.158971 0.804945,-0.183404 0.883799,-0.138372 0.440006,0.251285 -0.620678,0.544962 -1.537694,0.50635 -1.895055,-0.07979 -0.08585,-0.140812 -0.156756,-0.308229 -0.157565,-0.372037 -0.0043,-0.338084 -0.136473,-0.319329 -0.531169,0.07537 -0.219147,0.219147 -0.559287,0.469595 -0.755866,0.556551 -0.459341,0.203189 -1.138452,0.254072 -1.515078,0.113519 z m 1.720196,-0.788251 c 0.285713,-0.144903 0.593133,-0.496047 0.741221,-0.846641 0.163696,-0.387543 0.248937,-1.692767 0.115919,-1.774976 -0.137482,-0.08497 -1.628714,0.679397 -1.958636,1.003944 -0.371182,0.365134 -0.502906,0.776769 -0.379922,1.187248 0.04947,0.16511 0.142203,0.343573 0.206078,0.396585 0.269939,0.224028 0.868992,0.239923 1.27534,0.03384 z"
     id="path1063" />
</svg>
