<?xml version="1.0" encoding="UTF-8" standalone="no"?>
<svg
   id="svg"
   version="1.1"
   width="400"
   height="95.07389162561577"
   viewBox="0, 0, 400,95.07389162561577"
   sodipodi:docname="leevoluciona.svg"
   inkscape:version="1.1 (c68e22c387, 2021-05-23)"
   xmlns:inkscape="http://www.inkscape.org/namespaces/inkscape"
   xmlns:sodipodi="http://sodipodi.sourceforge.net/DTD/sodipodi-0.dtd"
   xmlns="http://www.w3.org/2000/svg"
   xmlns:svg="http://www.w3.org/2000/svg">
  <defs
     id="defs7" />
  <sodipodi:namedview
     id="namedview5"
     pagecolor="#ffffff"
     bordercolor="#666666"
     borderopacity="1.0"
     inkscape:pageshadow="2"
     inkscape:pageopacity="0.0"
     inkscape:pagecheckerboard="0"
     showgrid="false"
     inkscape:zoom="2.835"
     inkscape:cx="208.81834"
     inkscape:cy="38.271605"
     inkscape:window-width="1920"
     inkscape:window-height="1017"
     inkscape:window-x="-8"
     inkscape:window-y="-8"
     inkscape:window-maximized="1"
     inkscape:current-layer="svg" />
  <path
     style="fill:#ffffff;fill-rule:evenodd;stroke-width:0.352734"
     d="M 54.526536,82.705891 C 50.670083,81.626804 48.457793,79.982896 39.943444,71.869489 36.940482,69.007937 34.367092,66.666667 34.2248,66.666667 c -0.142291,0 -1.04368,0.705753 -2.003085,1.568342 -3.203505,2.880226 -7.47116,3.782134 -10.521386,2.223545 -2.020953,-1.032656 -2.888475,-2.274113 -3.095624,-4.429958 -0.418925,-4.359834 2.407936,-7.827538 6.380986,-7.827538 2.087201,0 4.015397,0.72485 6.603485,2.482385 1.183193,0.803492 2.199297,1.406991 2.258008,1.341107 0.976828,-1.096151 4.560911,-10.913854 8.112092,-22.221057 2.163581,-6.888991 2.298475,-7.704728 1.274083,-7.704728 -1.231519,0 -10.379143,1.778628 -12.721895,2.473594 -3.109558,0.922437 -5.928194,2.683888 -7.20105,4.500154 -1.370213,1.955187 -1.670384,5.242274 -0.647975,7.095801 0.607667,1.10164 1.210099,1.525472 4.145321,2.916374 0.645735,0.305992 1.058201,0.771152 1.058201,1.193388 0,1.598742 -4.513237,0.782581 -6.241628,-1.128719 -2.126289,-2.351307 -2.685497,-7.030131 -1.215781,-10.172285 1.022335,-2.185683 3.555578,-4.557109 6.043357,-5.657323 2.620932,-1.1591 5.352789,-1.832178 12.670752,-3.121832 l 6.318428,-1.113505 1.031822,-1.931977 c 1.218649,-2.281789 3.551447,-4.828877 4.998128,-5.457252 0.972481,-0.422404 1.759603,-0.341734 3.48028,0.35668 0.892244,0.362159 1.745612,2.166367 1.465334,3.098041 -0.554734,1.843998 -4.015418,4.498936 -6.958466,5.33834 -2.020325,0.576229 -2.359239,1.326958 -6.42593,14.234065 -1.851351,5.875929 -4.00932,12.145769 -4.795486,13.932978 -0.786166,1.787214 -1.652572,3.753246 -1.925346,4.36897 l -0.495952,1.119493 6.661533,6.464282 c 8.359932,8.112384 10.942356,9.766751 15.297188,9.799767 2.303213,0.01746 4.142169,-0.752889 6.398646,-2.680427 2.662603,-2.274462 3.755202,-0.815065 1.426543,1.90545 -2.481961,2.899612 -7.106205,4.182988 -11.072847,3.073069 z M 28.86832,67.443908 c 1.707956,-0.924635 3.054079,-2.269509 3.054079,-3.051245 0,-1.026554 -5.036441,-3.713231 -6.971671,-3.719023 -1.789279,-0.0054 -3.629296,1.865044 -3.861514,3.925274 -0.221642,1.966398 0.284737,3.015612 1.778065,3.684141 1.487041,0.665714 3.825261,0.338751 6.001041,-0.839147 z M 52.292769,26.572502 c 1.248138,-0.935075 1.564342,-2.448366 0.589741,-2.822356 -0.711314,-0.272957 -2.255554,0.873651 -3.085685,2.291141 -1.175698,2.007563 0.148991,2.289498 2.495944,0.531215 z"
     id="path400" />
  <path
     style="fill:#ffffff;fill-rule:evenodd;stroke-width:0.352734"
     d="m 55.202822,70.711785 c -2.437495,-1.099126 -4.225237,-3.467983 -4.734709,-6.273751 -0.556688,-3.065796 1.246729,-9.905028 3.814884,-14.467469 1.716812,-3.049991 4.321281,-6.142584 6.337529,-7.525292 1.533869,-1.051901 1.96886,-1.175432 4.139056,-1.175432 2.164199,0 2.545317,0.107454 3.543071,0.998947 0.9438,0.843285 1.143572,1.30713 1.282025,2.976697 0.425545,5.131515 -3.79136,8.850734 -14.453528,12.747697 -1.930969,0.705759 -2.148344,1.160622 -2.148421,4.495641 -1.21e-4,5.233706 3.774175,7.566267 9.037907,5.585537 3.889152,-1.463479 6.414154,-4.831087 9.943008,-13.261043 2.86342,-6.840322 5.955112,-11.110417 9.268018,-12.800536 1.733452,-0.884341 4.905922,-0.998174 6.39261,-0.229377 1.180444,0.61043 2.146451,2.475527 2.146451,4.14421 0,0.660102 -0.411122,2.025199 -0.913605,3.033548 -1.638695,3.288436 -5.830674,6.239513 -11.901449,8.378405 -3.236197,1.140196 -3.750169,1.741162 -4.018328,4.698462 -0.261976,2.88912 0.736074,4.991839 2.856604,6.01837 1.916309,0.927669 3.557706,0.918759 6.115221,-0.0332 2.664811,-0.991892 5.759296,-4.117766 7.648679,-7.726259 2.227555,-4.254365 3.740215,-5.443844 3.740215,-2.941115 0,3.224792 -5.777788,10.758215 -9.736505,12.695035 -2.602991,1.273525 -5.998418,1.520516 -8.415994,0.612199 -1.923919,-0.722843 -3.950343,-2.958573 -4.309568,-4.754699 -0.11059,-0.552949 -0.355308,-1.005363 -0.543817,-1.005363 -0.18851,0 -1.380596,0.951002 -2.64908,2.113337 -3.029193,2.775705 -5.530016,3.955993 -8.73657,4.123309 -1.727964,0.09016 -2.839722,-0.03827 -3.703704,-0.427858 z M 59.611993,53.26938 c 3.997569,-1.994228 6.506471,-3.977938 7.392436,-5.84497 0.781585,-1.64707 0.47509,-2.815115 -0.929244,-3.541325 -1.523323,-0.78774 -3.389925,-0.200203 -5.477596,1.724145 -3.329202,3.068751 -6.666698,9.415516 -4.95385,9.420511 0.242504,7.07e-4 2.028219,-0.790555 3.968254,-1.758361 z m 17.68179,1.186487 c 2.55358,-1.066783 6.782299,-3.692649 8.055924,-5.002405 2.483729,-2.554191 2.50315,-5.446753 0.03968,-5.908903 -2.677556,-0.502313 -5.768958,2.025113 -8.623976,7.050671 -2.433363,4.283336 -2.327905,5.053877 0.528376,3.860637 z"
     id="path556" />
  <path
     style="fill:#ffffff;fill-rule:evenodd;stroke-width:0.352734"
     d="m 118.75887,70.800202 c -0.20632,-0.248601 -2.19628,-4.891458 -4.42213,-10.31746 -6.29978,-15.357083 -6.70449,-16.130649 -8.66451,-16.561141 -1.12698,-0.247526 -2.04977,-1.103086 -1.63286,-1.513899 0.43315,-0.426823 13.95531,-0.21549 14.39579,0.224985 0.53324,0.533246 0.24239,0.741418 -1.73863,1.244412 -1.4637,0.371642 -1.72133,0.569181 -1.81813,1.394077 -0.18325,1.561644 6.0894,19.318478 6.83362,19.344829 0.18361,0.0065 1.74947,-3.378646 3.47968,-7.522551 2.8137,-6.738879 3.16178,-7.815098 3.29674,-10.193226 l 0.15089,-2.658855 -1.53307,-0.339381 c -1.22117,-0.270336 -1.55704,-0.508814 -1.65092,-1.172202 l -0.11785,-0.832819 5.30508,0.129391 c 6.29975,0.153652 6.8556,0.413301 4.44109,2.074529 -1.91453,1.317231 -2.13686,1.74836 -8.63558,16.74567 -2.18573,5.044092 -4.21405,9.448853 -4.50736,9.78836 -0.62368,0.721894 -2.63327,0.826283 -3.18185,0.165281 z"
     id="path712" />
  <path
     style="fill:#ffffff;fill-rule:evenodd;stroke-width:0.352734"
     d="m 151.67549,70.402461 c -5.21321,-1.291761 -9.56146,-5.617103 -10.97181,-10.913992 -2.19021,-8.22581 3.62392,-16.438451 12.64169,-17.856777 6.26861,-0.985937 13.31755,2.838077 16.07407,8.720109 0.85214,1.818347 0.95093,2.432244 0.95093,5.909222 0,3.534024 -0.0879,4.059141 -0.98599,5.887905 -3.17851,6.4726 -10.71698,9.986035 -17.70889,8.253533 z m 8.00246,-3.576326 c 1.90093,-1.329018 3.64832,-3.889765 4.38613,-6.427735 0.84631,-2.911208 0.55247,-7.770449 -0.62444,-10.326312 -1.96613,-4.269804 -4.76447,-6.14657 -8.82288,-5.91725 -3.22368,0.182155 -4.96315,1.382903 -6.5729,4.537255 -2.81961,5.525083 -2.05943,13.477584 1.6252,17.001926 2.1213,2.029012 3.09895,2.405887 5.95245,2.294611 2.15812,-0.08416 2.76131,-0.257022 4.05644,-1.162495 z"
     id="path751" />
  <path
     style="fill:#ffffff;fill-rule:evenodd;stroke-width:0.352734"
     d="m 175.0147,69.958847 c -0.51513,-0.515122 -0.14637,-0.817524 1.91224,-1.568127 1.54076,-0.561789 2.23826,-1.021972 2.46904,-1.628963 0.48107,-1.265309 0.81653,-29.273612 0.39798,-33.228732 -0.38845,-3.670813 -0.61832,-4.027044 -2.8264,-4.38013 -0.72851,-0.116494 -1.62682,-0.432816 -1.99623,-0.702938 -0.65477,-0.478783 -0.65263,-0.501316 0.0852,-0.896202 1.08194,-0.579036 9.2391,-2.28216 9.53149,-1.99007 0.13443,0.134283 0.34384,9.080245 0.46536,19.879915 0.26187,23.272742 0.1605,22.615257 3.57094,23.160111 1.36111,0.217453 1.78706,0.983908 0.7648,1.376187 -0.76183,0.292342 -14.08056,0.272836 -14.37444,-0.02106 z"
     id="path790" />
  <path
     style="fill:#ffffff;fill-rule:evenodd;stroke-width:0.352734"
     d="m 203.78489,70.373559 c -3.4251,-0.960749 -4.55115,-1.816761 -5.58929,-4.248902 -0.47901,-1.122243 -0.64998,-3.172376 -0.86668,-10.392735 -0.14847,-4.94709 -0.42501,-9.398057 -0.61454,-9.891039 -0.44146,-1.148309 -1.02686,-1.609358 -2.42193,-1.907481 -1.18499,-0.25323 -2.14719,-1.099241 -1.72751,-1.518916 0.13708,-0.137083 2.45237,-0.309745 5.14507,-0.383694 l 4.89584,-0.134452 0.10801,10.356945 c 0.10678,10.238824 0.11807,10.377053 0.98984,12.120103 2.68155,5.361543 8.77805,4.047357 12.15696,-2.620602 0.86605,-1.709077 0.89419,-1.980704 0.89419,-8.631677 0,-3.776889 -0.14192,-7.234547 -0.31537,-7.683684 -0.21806,-0.564633 -0.98924,-1.073994 -2.49922,-1.650728 -1.53431,-0.586023 -2.07296,-0.944999 -1.81104,-1.206925 0.33994,-0.339937 9.85072,-0.87656 9.96576,-0.562294 0.027,0.07381 0.14607,5.705368 0.26455,12.514576 0.23699,13.619726 0.18891,13.350301 2.45546,13.759009 4.42013,0.797047 2.89095,1.982252 -3.17328,2.459468 -2.84865,0.224171 -3.07531,0.19202 -3.43915,-0.487814 -0.21423,-0.400292 -0.39168,-1.412841 -0.39433,-2.25011 -0.003,-0.837269 -0.0998,-1.876672 -0.21589,-2.309785 -0.19819,-0.739396 -0.34327,-0.667368 -2.37613,1.179678 -3.92983,3.570611 -7.38546,4.625938 -11.43132,3.491059 z"
     id="path829" />
  <path
     style="fill:#ffffff;fill-rule:evenodd;stroke-width:0.352734"
     d="m 241.03576,70.222632 c -2.58632,-0.827129 -4.10652,-1.785443 -5.87392,-3.702844 -4.20422,-4.561047 -5.03754,-11.212191 -2.14175,-17.094384 2.68762,-5.45934 7.78783,-8.088282 15.02058,-7.74248 2.52227,0.120591 3.55934,0.345248 5.12118,1.109383 2.81542,1.377458 3.59231,3.187905 2.10905,4.914924 -0.97661,1.137121 -2.40588,0.7162 -4.78075,-1.407932 -1.77883,-1.591018 -3.32132,-2.207588 -5.52279,-2.207588 -4.31863,0 -6.87456,3.369374 -7.27724,9.59326 -0.56836,8.78488 2.17996,13.775083 7.86789,14.285961 2.6203,0.23535 4.3356,-0.23582 7.18912,-1.974769 1.99567,-1.216168 2.34475,-1.325573 2.80507,-0.879122 1.90049,1.843242 -5.7085,5.829611 -11.00102,5.763461 -0.83472,-0.01043 -2.41666,-0.306474 -3.51542,-0.65787 z"
     id="path868" />
  <path
     style="fill:#ffffff;fill-rule:evenodd;stroke-width:0.352734"
     d="m 260.34517,69.878834 c -0.64267,-0.25184 -0.63404,-0.296198 0.16667,-0.857042 0.46444,-0.325301 1.1191,-0.591457 1.45481,-0.591457 1.16654,0 2.36227,-0.803388 2.82432,-1.897608 0.3436,-0.813696 0.46476,-3.445533 0.46476,-10.095337 0,-10.199339 -0.13032,-10.845594 -2.29277,-11.369567 -2.96221,-0.717761 -4.0892,-1.69649 -2.52511,-2.192914 1.34846,-0.427983 8.03765,-1.605068 9.12136,-1.605068 h 1.13027 l 0.10499,12.450112 c 0.12097,14.343398 0.044,13.976478 3.08553,14.706135 1.36513,0.327488 1.78138,0.583968 1.78138,1.09763 0,0.63782 -0.35452,0.669085 -7.31923,0.645494 -4.02557,-0.01364 -7.62421,-0.144306 -7.99698,-0.290378 z"
     id="path907" />
  <path
     style="fill:#ffffff;fill-rule:evenodd;stroke-width:0.352734"
     d="m 266.09808,32.275259 c -2.55409,-1.388121 -1.91004,-5.135973 0.97562,-5.677326 2.47886,-0.465035 4.35072,1.347101 3.83183,3.709568 -0.46427,2.113806 -2.78838,3.0651 -4.80745,1.967758 z"
     id="path946" />
  <path
     style="fill:#ffffff;fill-rule:evenodd;stroke-width:0.352734"
     d="m 291.30437,70.421169 c -6.09435,-1.553761 -10.35095,-6.074452 -11.49081,-12.203738 -0.78186,-4.204225 1.0206,-9.424237 4.31976,-12.510207 8.71094,-8.148068 23.29608,-3.655982 25.78318,7.940979 1.38017,6.43547 -2.98605,13.635746 -9.8189,16.192242 -2.46489,0.922234 -6.4273,1.18392 -8.79323,0.580724 z m 7.31819,-3.277678 c 3.5557,-1.935255 5.43541,-6.306353 5.19358,-12.077198 -0.16599,-3.961136 -1.11317,-6.440513 -3.27404,-8.570234 -2.3792,-2.344916 -4.84621,-2.929467 -8.49054,-2.011814 -1.87871,0.473064 -4.07763,2.683439 -5.14371,5.170488 -2.10107,4.901598 -1.08926,12.692454 2.08916,16.086395 2.31585,2.472874 6.53048,3.086911 9.62555,1.402363 z"
     id="path985" />
  <path
     style="fill:#ffffff;fill-rule:evenodd;stroke-width:0.352734"
     d="m 314.83626,69.861988 c -0.51097,-0.32331 -0.14926,-0.541007 2.89569,-1.742804 0.5374,-0.212105 1.11161,-0.744739 1.276,-1.183632 0.5015,-1.338868 0.79666,-12.903497 0.42548,-16.671002 -0.30965,-3.14302 -0.44782,-3.613808 -1.26817,-4.320987 -0.50635,-0.436508 -1.36855,-0.793651 -1.91599,-0.793651 -1.2206,0 -2.01241,-0.784907 -1.34803,-1.336288 0.60675,-0.503562 7.66072,-2.271514 8.2148,-2.058894 0.24429,0.09374 0.5531,1.127465 0.69052,2.311484 0.29835,2.570562 0.70982,2.700746 2.73975,0.866825 2.34061,-2.1146 4.88596,-3.079069 8.55069,-3.239983 3.03845,-0.133414 3.27294,-0.08875 5.46737,1.041448 1.95318,1.005938 2.42021,1.43801 3.15314,2.917111 0.82003,1.654864 0.87186,2.159344 1.10531,10.75957 0.28641,10.551226 0.47824,11.39498 2.72846,12.000901 1.42412,0.383477 2.36386,1.131915 1.94595,1.549822 -0.12765,0.127652 -3.38024,0.232096 -7.22798,0.232096 -5.85606,0 -6.99588,-0.08281 -6.99588,-0.508284 0,-0.623102 0.49695,-0.949105 1.87706,-1.231368 2.03536,-0.416275 2.49658,-1.606159 2.64626,-6.826963 0.17911,-6.247397 -0.41267,-13.019258 -1.26531,-14.47917 -1.64068,-2.809237 -5.29615,-3.552623 -8.82421,-1.794515 -1.98623,0.989777 -3.23599,2.275846 -4.36812,4.494996 -0.68693,1.346491 -0.72134,1.887134 -0.58928,9.259556 0.10463,5.841453 0.2598,7.973636 0.6111,8.396927 0.25898,0.312045 1.12698,0.742744 1.9289,0.957108 1.64522,0.439795 2.42444,0.956753 2.13879,1.418946 -0.25536,0.413191 -13.93738,0.395143 -14.5923,-0.01925 z"
     id="path1024" />
  <path
     style="fill:#ffffff;fill-rule:evenodd;stroke-width:0.352734"
     d="m 358.11608,70.419045 c -3.11223,-1.161453 -4.49711,-2.889936 -4.49924,-5.61556 -0.002,-2.255441 0.65357,-3.690311 2.40885,-5.274198 1.43802,-1.297615 6.77591,-4.137411 11.43463,-6.083304 l 2.38095,-0.994497 v -2.603915 c 0,-4.353084 -1.12115,-5.946521 -4.45274,-6.328459 -2.55582,-0.293002 -3.41917,0.198126 -4.75542,2.705174 -0.63736,1.195811 -1.51822,2.409681 -1.95747,2.697491 -1.07665,0.705445 -2.80436,0.296066 -3.54942,-0.841029 -0.52019,-0.793917 -0.52826,-1.041549 -0.0762,-2.338802 0.91957,-2.63899 3.35524,-3.715656 9.09624,-4.020918 4.00437,-0.212922 6.90584,0.236919 8.74587,1.355953 1.98601,1.207813 2.2633,2.561413 2.75054,13.426669 0.3676,8.197116 0.53683,9.917307 1.05318,10.705356 0.49482,0.755202 0.7989,0.897063 1.55405,0.725006 3.67103,-0.836435 4.03065,-0.631059 2.00669,1.146008 -2.83066,2.485352 -7.0128,2.309257 -8.64258,-0.363909 -0.39153,-0.642185 -0.7149,-1.405705 -0.71859,-1.696711 -0.0196,-1.541865 -0.6224,-1.456331 -2.42245,0.343724 -0.99944,0.999441 -2.55068,2.141635 -3.4472,2.538207 -2.09487,0.926662 -5.19202,1.158719 -6.90966,0.517714 z m 7.84512,-3.594898 c 1.30302,-0.660841 2.70504,-2.262268 3.38041,-3.861184 0.74655,-1.76743 1.1353,-7.72003 0.52866,-8.094951 -0.627,-0.387508 -7.42791,3.098455 -8.93255,4.578585 -1.69281,1.665225 -2.29355,3.542528 -1.73267,5.414557 0.2256,0.753 0.64853,1.566899 0.93984,1.808664 1.23108,1.021702 3.96312,1.094194 5.81631,0.154329 z"
     id="path1063" />
</svg>
